<svg width="20" height="21" viewBox="0 0 20 21" fill="none" xmlns="http://www.w3.org/2000/svg">
<path d="M8 0.756104C12.4183 0.756104 16 4.25047 16 8.56098C16 10.3641 15.3733 12.0244 14.3207 13.3459L15.483 14.4806C16.15 14.3072 16.891 14.4757 17.4142 14.9861L19.4142 16.9374C20.1953 17.6994 20.1953 18.9348 19.4142 19.6968C18.6332 20.4588 17.3668 20.4588 16.5858 19.6968L14.5858 17.7456C14.0626 17.2351 13.8899 16.5122 14.0676 15.8615L12.9045 14.7275C11.55 15.7544 9.8482 16.3659 8 16.3659C3.58172 16.3659 0 12.8715 0 8.56098C0 4.25047 3.58172 0.756104 8 0.756104ZM8 2.70732C4.68629 2.70732 2 5.3281 2 8.56098C2 11.7939 4.68629 14.4146 8 14.4146C11.3137 14.4146 14 11.7939 14 8.56098C14 5.3281 11.3137 2.70732 8 2.70732Z" fill="#4B95C3"/>
</svg>
